<?xml version="1.0" encoding="UTF-8" standalone="no"?>
<!-- Created with Inkscape (http://www.inkscape.org/) -->

<svg
   version="1.1"
   id="svg1"
   width="231.53558"
   height="227.8316"
   viewBox="0 0 231.53558 227.8316"
   sodipodi:docname="260305_graph_lysateDAEP_stables.pdf"
   xmlns:inkscape="http://www.inkscape.org/namespaces/inkscape"
   xmlns:sodipodi="http://sodipodi.sourceforge.net/DTD/sodipodi-0.dtd"
   xmlns="http://www.w3.org/2000/svg"
   xmlns:svg="http://www.w3.org/2000/svg">
  <defs
     id="defs1" />
  <sodipodi:namedview
     id="namedview1"
     pagecolor="#ffffff"
     bordercolor="#000000"
     borderopacity="0.25"
     inkscape:showpageshadow="2"
     inkscape:pageopacity="0.0"
     inkscape:pagecheckerboard="0"
     inkscape:deskcolor="#d1d1d1">
    <inkscape:page
       x="0"
       y="0"
       inkscape:label="1"
       id="page1"
       width="231.53558"
       height="227.8316"
       margin="0"
       bleed="0" />
  </sodipodi:namedview>
  <g
     id="g1"
     inkscape:groupmode="layer"
     inkscape:label="1">
    <path
       id="path1"
       d="m 1169,1058 v 42 h 144 v -42 h -144"
       style="fill:#000000;fill-opacity:1;fill-rule:evenodd;stroke:none"
       transform="scale(0.16001333,0.16)" />
    <path
       id="path2"
       d="m 1172,1100 v -39 h 138 v 39"
       style="fill:none;stroke:#000000;stroke-width:6;stroke-linecap:butt;stroke-linejoin:miter;stroke-miterlimit:1;stroke-dasharray:none;stroke-opacity:1"
       transform="scale(0.16001333,0.16)" />
    <path
       id="path3"
       d="m 951,630 v 470 h 144 V 630 H 951"
       style="fill:#000000;fill-opacity:1;fill-rule:evenodd;stroke:none"
       transform="scale(0.16001333,0.16)" />
    <path
       id="path4"
       d="M 954,1100 V 633 h 138 v 467"
       style="fill:none;stroke:#000000;stroke-width:6;stroke-linecap:butt;stroke-linejoin:miter;stroke-miterlimit:1;stroke-dasharray:none;stroke-opacity:1"
       transform="scale(0.16001333,0.16)" />
    <path
       id="path5"
       d="m 733,1024 v 76 h 144 v -76 H 733"
       style="fill:#000000;fill-opacity:1;fill-rule:evenodd;stroke:none"
       transform="scale(0.16001333,0.16)" />
    <path
       id="path6"
       d="m 736,1100 v -73 h 138 v 73"
       style="fill:none;stroke:#000000;stroke-width:6;stroke-linecap:butt;stroke-linejoin:miter;stroke-miterlimit:1;stroke-dasharray:none;stroke-opacity:1"
       transform="scale(0.16001333,0.16)" />
    <path
       id="path7"
       d="m 515,471 v 629 H 659 V 471 H 515"
       style="fill:#000000;fill-opacity:1;fill-rule:evenodd;stroke:none"
       transform="scale(0.16001333,0.16)" />
    <path
       id="path8"
       d="M 518,1100 V 474 h 138 v 626"
       style="fill:none;stroke:#000000;stroke-width:6;stroke-linecap:butt;stroke-linejoin:miter;stroke-miterlimit:1;stroke-dasharray:none;stroke-opacity:1"
       transform="scale(0.16001333,0.16)" />
    <path
       style="font-size:66.0003px;font-family:Arial"
       d="M 13.341857,0 0.80566769,-47.244354 H 7.2187825 l 7.1865555,30.969867 q 1.160162,4.866232 1.998056,9.6680119 1.804696,-7.5732759 2.126963,-8.7334379 l 8.991251,-31.904441 h 7.54105 l 6.767609,23.912218 q 2.54591,8.894571 3.673844,16.7256609 0.902348,-4.4795119 2.35255,-10.2803199 l 7.412143,-30.357559 h 6.284208 L 48.597875,0 h -6.026394 l -9.958053,-35.997233 q -1.256841,-4.511739 -1.482428,-5.542993 -0.741215,3.254897 -1.385749,5.542993 L 19.722745,0 Z"
       id="text8"
       transform="matrix(0.11314651,-0.11313708,0.11314651,0.11313708,85.767147,205.12)"
       aria-label="W" />
    <path
       style="font-size:66.0003px;font-family:Arial"
       d="m 17.112382,0 v -41.669133 h -15.5655 v -5.575221 h 37.447434 v 5.575221 H 23.364363 V 0 Z"
       id="text9"
       transform="matrix(0.11314651,-0.11313708,0.11314651,0.11313708,92.807733,198.24)"
       aria-label="T" />
    <path
       style="font-size:66.0003px;font-family:Arial"
       d="m 2.9648571,-15.178779 5.8974875,-0.515628 q 0.4189472,3.544938 1.9336024,5.8330344 1.546882,2.2558696 4.769553,3.6738447 3.222671,1.3857484 7.251009,1.3857484 3.577165,0 6.316435,-1.0634813 2.73927,-1.0634814 4.060565,-2.9004037 1.353522,-1.8691495 1.353522,-4.0605655 0,-2.223643 -1.289069,-3.867205 -1.289068,-1.675788 -4.253925,-2.803723 -1.901376,-0.741214 -8.411171,-2.288096 -6.509795,-1.579109 -9.120158,-2.964858 -3.3838043,-1.772469 -5.0595932,-4.382832 -1.643562,-2.64259 -1.643562,-5.897487 0,-3.577165 2.0302825,-6.670929 2.0302826,-3.125991 5.9297147,-4.737326 3.899431,-1.611335 8.668984,-1.611335 5.252953,0 9.249065,1.708015 4.028339,1.675789 6.187528,4.962913 2.159189,3.287124 2.320323,7.44437 l -5.994168,0.451174 q -0.4834,-4.479513 -3.287124,-6.767609 -2.771497,-2.288096 -8.21781,-2.288096 -5.671901,0 -8.282264,2.094736 -2.578137,2.062509 -2.578137,4.995139 0,2.54591 1.836922,4.189472 1.804696,1.643563 9.410199,3.383805 7.63773,1.708015 10.47368,2.997084 4.125019,1.901375 6.090848,4.834006 1.965829,2.900403 1.965829,6.703155 0,3.7705248 -2.159189,7.1221024 -2.15919,3.3193509 -6.219755,5.1885 -4.028338,1.83692229 -9.087932,1.83692229 -6.413114,0 -10.76372,-1.86914909 Q 8.0244502,-2.9326304 5.5429937,-6.6709285 3.0937639,-10.441453 2.9648571,-15.178779 Z"
       id="text10"
       transform="matrix(0.11314651,-0.11313708,0.11314651,0.11313708,109.76915,216)"
       aria-label="S" />
    <path
       style="font-size:66.0003px;font-family:Arial"
       d="m 24.588978,0 h -5.800807 v -36.964034 q -2.094736,1.998056 -5.510767,3.996112 -3.3838047,1.998056 -6.0908482,2.997084 v -5.607447 q 4.8662332,-2.288097 8.5078512,-5.542994 3.641618,-3.254898 5.156273,-6.316435 h 3.738298 z m 45.022258,-35.674966 -5.768581,0.451174 q -0.773441,-3.416031 -2.191416,-4.962913 -2.35255,-2.481456 -5.800807,-2.481456 -2.771497,0 -4.866233,1.546882 -2.73927,1.998056 -4.318379,5.833034 -1.579109,3.834978 -1.643562,10.924854 2.094736,-3.190444 5.124046,-4.737326 3.029311,-1.546882 6.348662,-1.546882 5.800807,0 9.861372,4.286152 4.092792,4.253925 4.092792,11.021534 0,4.447286 -1.933602,8.282264 -1.901376,3.8027515 -5.252954,5.8330341 -3.351577,2.03028259 -7.605503,2.03028259 -7.251009,0 -11.827201,-5.31740679 -4.576193,-5.3496335 -4.576193,-17.5957829 0,-13.69635 5.059593,-19.916105 4.415059,-5.414087 11.891655,-5.414087 5.575221,0 9.120159,3.125991 3.577164,3.12599 4.286152,8.636757 z m -23.68663,20.36728 q 0,2.997084 1.256841,5.7363538 1.289069,2.7392701 3.577165,4.189472 2.288096,1.4179751 4.801779,1.4179751 3.673845,0 6.316435,-2.9648571 2.64259,-2.9648571 2.64259,-8.0566768 0,-4.89846 -2.610363,-7.702183 -2.610364,-2.835951 -6.574249,-2.835951 -3.931658,0 -6.670928,2.835951 -2.73927,2.803723 -2.73927,7.379916 z M 94.878522,0 V -11.311574 H 74.382336 v -5.317407 l 21.559667,-30.615373 h 4.737327 v 30.615373 h 6.38089 v 5.317407 h -6.38089 V 0 Z m 0,-16.628981 V -37.930835 L 80.086463,-16.628981 Z M 110.21998,0 128.36361,-47.244354 H 135.099 L 154.43502,0 h -7.1221 l -5.51077,-14.308658 H 122.04718 L 116.85868,0 Z m 13.6319,-19.400478 h 16.01667 l -4.93069,-13.084043 q -2.25587,-5.961941 -3.35157,-9.79692 -0.90235,4.543966 -2.54591,9.023479 z"
       id="text11"
       transform="matrix(0.11314651,-0.11313708,0.11314651,0.11313708,114.88957,211.04)"
       aria-label="164A" />
    <path
       style="font-size:66.0003px;font-family:Arial"
       d="M -0.06445342,0 18.079183,-47.244354 h 6.735382 L 44.15059,0 Z M 8.604531,-5.5752204 H 34.869298 L 24.653431,-32.484521 q -2.288096,-6.058622 -3.351577,-9.79692 -0.870121,4.382833 -2.54591,9.023479 z"
       id="text12"
       transform="matrix(0.11314651,-0.11313708,0.11314651,0.11313708,156.81307,203.84)"
       aria-label="Δ" />
    <path
       style="font-size:66.0003px;font-family:Arial"
       d="m 5.0273664,0 v -47.244354 h 6.4131146 l 24.814565,37.092941 v -37.092941 h 5.994168 V 0 H 35.836099 L 11.021534,-37.125167 V 0 Z"
       id="text13"
       transform="matrix(0.11314651,-0.11313708,0.11314651,0.11313708,161.93349,198.88)"
       aria-label="N" />
    <path
       style="font-size:66.0003px;font-family:Arial"
       d="M -0.06445342,0 18.079183,-47.244354 h 6.735382 L 44.15059,0 Z M 8.604531,-5.5752204 H 34.869298 L 24.653431,-32.484521 q -2.288096,-6.058622 -3.351577,-9.79692 -0.870121,4.382833 -2.54591,9.023479 z"
       id="text14"
       transform="matrix(0.11314651,-0.11313708,0.11314651,0.11313708,188.65572,206.88)"
       aria-label="Δ" />
    <path
       style="font-size:66.0003px;font-family:Arial"
       d="M 4.8340062,0 V -47.244354 H 11.085987 V -5.5752204 H 34.353671 V 0 Z m 64.7772298,-35.674966 -5.768581,0.451174 q -0.773441,-3.416031 -2.191416,-4.962913 -2.35255,-2.481456 -5.800807,-2.481456 -2.771497,0 -4.866233,1.546882 -2.73927,1.998056 -4.318379,5.833034 -1.579109,3.834978 -1.643562,10.924854 2.094736,-3.190444 5.124046,-4.737326 3.029311,-1.546882 6.348662,-1.546882 5.800807,0 9.861372,4.286152 4.092792,4.253925 4.092792,11.021534 0,4.447286 -1.933602,8.282264 -1.901376,3.8027515 -5.252954,5.8330341 -3.351577,2.03028259 -7.605503,2.03028259 -7.251009,0 -11.827201,-5.31740679 -4.576193,-5.3496335 -4.576193,-17.5957829 0,-13.69635 5.059593,-19.916105 4.415059,-5.414087 11.891655,-5.414087 5.575221,0 9.120159,3.125991 3.577164,3.12599 4.286152,8.636757 z m -23.68663,20.36728 q 0,2.997084 1.256841,5.7363538 1.289069,2.7392701 3.577165,4.189472 2.288096,1.4179751 4.801779,1.4179751 3.673845,0 6.316435,-2.9648571 2.64259,-2.9648571 2.64259,-8.0566768 0,-4.89846 -2.610363,-7.702183 -2.610364,-2.835951 -6.574249,-2.835951 -3.931658,0 -6.670928,2.835951 -2.73927,2.803723 -2.73927,7.379916 z"
       id="text15"
       transform="matrix(0.11314651,-0.11313708,0.11314651,0.11313708,193.77615,201.92)"
       aria-label="L6" />
    <path
       id="path15"
       d="m 440,1100 h 950 m -802,48 v -48 m 218,48 v -48 m 218,48 v -48 m 218,48 v -48"
       style="fill:none;stroke:#000000;stroke-width:6;stroke-linecap:butt;stroke-linejoin:miter;stroke-miterlimit:1;stroke-dasharray:none;stroke-opacity:1"
       transform="scale(0.16001333,0.16)" />
    <path
       style="font-size:66px;font-family:Arial"
       d="m 2.7392578,-23.299805 q 0,-8.378906 1.7080078,-13.470703 1.7402344,-5.124023 5.1240235,-7.895508 3.4160159,-2.771484 8.5722659,-2.771484 3.802734,0 6.670898,1.546875 2.868164,1.514648 4.737305,4.415039 1.86914,2.868164 2.932617,7.025391 1.063477,4.125 1.063477,11.15039 0,8.314453 -1.708008,13.4384769 -1.708008,5.0917969 -5.124024,7.8955078 -3.383789,2.77148436 -8.572265,2.77148436 -6.832032,0 -10.7314456,-4.89843746 -4.6728516,-5.897461 -4.6728516,-19.2070316 z m 5.9619141,0 q 0,11.633789 2.7070311,15.5009769 2.739258,3.8349609 6.735352,3.8349609 3.996093,0 6.703125,-3.8671875 2.739257,-3.8671873 2.739257,-15.4687503 0,-11.666015 -2.739257,-15.500976 -2.707032,-3.834961 -6.767578,-3.834961 -3.996094,0 -6.38086,3.383789 -2.9970701,4.318359 -2.9970701,15.952148 z M 42.700195,0 v -6.6064453 h 6.606446 V 0 Z m 15.082032,-23.299805 q 0,-8.378906 1.708007,-13.470703 1.740235,-5.124023 5.124024,-7.895508 3.416015,-2.771484 8.572265,-2.771484 3.802735,0 6.670899,1.546875 2.868164,1.514648 4.737305,4.415039 1.86914,2.868164 2.932617,7.025391 1.063476,4.125 1.063476,11.15039 0,8.314453 -1.708008,13.4384769 -1.708007,5.0917969 -5.124023,7.8955078 -3.383789,2.77148436 -8.572266,2.77148436 -6.832031,0 -10.731445,-4.89843746 -4.672851,-5.897461 -4.672851,-19.2070316 z m 5.961914,0 q 0,11.633789 2.707031,15.5009769 2.739258,3.8349609 6.735351,3.8349609 3.996094,0 6.703125,-3.8671875 2.739258,-3.8671873 2.739258,-15.4687503 0,-11.666015 -2.739258,-15.500976 -2.707031,-3.834961 -6.767578,-3.834961 -3.996093,0 -6.380859,3.383789 -2.99707,4.318359 -2.99707,15.952148 z"
       id="text16"
       transform="matrix(0.16001333,0,0,0.16,46.56388,179.68)"
       aria-label="0.0" />
    <path
       style="font-size:66px;font-family:Arial"
       d="m 2.7392578,-23.299805 q 0,-8.378906 1.7080078,-13.470703 1.7402344,-5.124023 5.1240235,-7.895508 3.4160159,-2.771484 8.5722659,-2.771484 3.802734,0 6.670898,1.546875 2.868164,1.514648 4.737305,4.415039 1.86914,2.868164 2.932617,7.025391 1.063477,4.125 1.063477,11.15039 0,8.314453 -1.708008,13.4384769 -1.708008,5.0917969 -5.124024,7.8955078 -3.383789,2.77148436 -8.572265,2.77148436 -6.832032,0 -10.7314456,-4.89843746 -4.6728516,-5.897461 -4.6728516,-19.2070316 z m 5.9619141,0 q 0,11.633789 2.7070311,15.5009769 2.739258,3.8349609 6.735352,3.8349609 3.996093,0 6.703125,-3.8671875 2.739257,-3.8671873 2.739257,-15.4687503 0,-11.666015 -2.739257,-15.500976 -2.707032,-3.834961 -6.767578,-3.834961 -3.996094,0 -6.38086,3.383789 -2.9970701,4.318359 -2.9970701,15.952148 z M 42.700195,0 v -6.6064453 h 6.606446 V 0 Z m 15.082032,-12.375 6.09082,-0.515625 q 0.676758,4.4472656 3.125976,6.703125 2.481446,2.2236328 5.961914,2.2236328 4.189454,0 7.089844,-3.1582031 2.900391,-3.1582027 2.900391,-8.3789067 0,-4.96289 -2.803711,-7.831054 -2.771484,-2.868164 -7.283203,-2.868164 -2.803711,0 -5.059571,1.289062 -2.255859,1.256836 -3.544921,3.28711 l -5.446289,-0.708985 4.576171,-24.266601 h 23.493164 v 5.542968 H 68.030273 l -2.545898,12.697266 q 4.253906,-2.964844 8.926758,-2.964844 6.1875,0 10.441406,4.286133 4.253906,4.286133 4.253906,11.021484 0,6.4130864 -3.738281,11.0859379 -4.543945,5.73632816 -12.407227,5.73632816 -6.445312,0 -10.538085,-3.60937496 -4.060547,-3.609375 -4.640625,-9.5712891 z"
       id="text17"
       transform="matrix(0.16001333,0,0,0.16,46.56388,129.44)"
       aria-label="0.5" />
    <path
       style="font-size:66px;font-family:Arial"
       d="m 24.588867,0 h -5.800781 v -36.963867 q -2.094727,1.998047 -5.510742,3.996094 -3.3837893,1.998046 -6.0908206,2.99707 v -5.607422 q 4.8662106,-2.288086 8.5078126,-5.542969 3.641601,-3.254883 5.15625,-6.316406 h 3.738281 z m 18.111328,0 v -6.6064453 h 6.606446 V 0 Z m 15.082032,-23.299805 q 0,-8.378906 1.708007,-13.470703 1.740235,-5.124023 5.124024,-7.895508 3.416015,-2.771484 8.572265,-2.771484 3.802735,0 6.670899,1.546875 2.868164,1.514648 4.737305,4.415039 1.86914,2.868164 2.932617,7.025391 1.063476,4.125 1.063476,11.15039 0,8.314453 -1.708008,13.4384769 -1.708007,5.0917969 -5.124023,7.8955078 -3.383789,2.77148436 -8.572266,2.77148436 -6.832031,0 -10.731445,-4.89843746 -4.672851,-5.897461 -4.672851,-19.2070316 z m 5.961914,0 q 0,11.633789 2.707031,15.5009769 2.739258,3.8349609 6.735351,3.8349609 3.996094,0 6.703125,-3.8671875 2.739258,-3.8671873 2.739258,-15.4687503 0,-11.666015 -2.739258,-15.500976 -2.707031,-3.834961 -6.767578,-3.834961 -3.996093,0 -6.380859,3.383789 -2.99707,4.318359 -2.99707,15.952148 z"
       id="text18"
       transform="matrix(0.16001333,0,0,0.16,46.56388,79.04)"
       aria-label="1.0" />
    <path
       style="font-size:66px;font-family:Arial"
       d="m 24.588867,0 h -5.800781 v -36.963867 q -2.094727,1.998047 -5.510742,3.996094 -3.3837893,1.998046 -6.0908206,2.99707 v -5.607422 q 4.8662106,-2.288086 8.5078126,-5.542969 3.641601,-3.254883 5.15625,-6.316406 h 3.738281 z m 18.111328,0 v -6.6064453 h 6.606446 V 0 Z m 15.082032,-12.375 6.09082,-0.515625 q 0.676758,4.4472656 3.125976,6.703125 2.481446,2.2236328 5.961914,2.2236328 4.189454,0 7.089844,-3.1582031 2.900391,-3.1582027 2.900391,-8.3789067 0,-4.96289 -2.803711,-7.831054 -2.771484,-2.868164 -7.283203,-2.868164 -2.803711,0 -5.059571,1.289062 -2.255859,1.256836 -3.544921,3.28711 l -5.446289,-0.708985 4.576171,-24.266601 h 23.493164 v 5.542968 H 68.030273 l -2.545898,12.697266 q 4.253906,-2.964844 8.926758,-2.964844 6.1875,0 10.441406,4.286133 4.253906,4.286133 4.253906,11.021484 0,6.4130864 -3.738281,11.0859379 -4.543945,5.73632816 -12.407227,5.73632816 -6.445312,0 -10.538085,-3.60937496 -4.060547,-3.609375 -4.640625,-9.5712891 z"
       id="text19"
       transform="matrix(0.16001333,0,0,0.16,46.56388,28.64)"
       aria-label="1.5" />
    <path
       id="path19"
       d="M 443,1103 V 153 m 0,947 h -48 m 48,-314 h -48 m 48,-315 h -48 m 48,-315 h -48"
       style="fill:none;stroke:#000000;stroke-width:6;stroke-linecap:butt;stroke-linejoin:miter;stroke-miterlimit:1;stroke-dasharray:none;stroke-opacity:1"
       transform="scale(0.16001333,0.16)" />
    <path
       id="path20"
       d="m 1241,1056 v 2"
       style="fill:none;stroke:#000000;stroke-width:6;stroke-linecap:butt;stroke-linejoin:miter;stroke-miterlimit:1;stroke-dasharray:none;stroke-opacity:1"
       transform="scale(0.16001333,0.16)" />
    <path
       id="path21"
       d="m 1241,1058 v 2"
       style="fill:none;stroke:#000000;stroke-width:6;stroke-linecap:butt;stroke-linejoin:miter;stroke-miterlimit:1;stroke-dasharray:none;stroke-opacity:1"
       transform="scale(0.16001333,0.16)" />
    <path
       id="path22"
       d="m 1205,1056 h 72"
       style="fill:none;stroke:#000000;stroke-width:6;stroke-linecap:butt;stroke-linejoin:miter;stroke-miterlimit:1;stroke-dasharray:none;stroke-opacity:1"
       transform="scale(0.16001333,0.16)" />
    <path
       id="path23"
       d="m 1205,1060 h 72"
       style="fill:none;stroke:#000000;stroke-width:6;stroke-linecap:butt;stroke-linejoin:miter;stroke-miterlimit:1;stroke-dasharray:none;stroke-opacity:1"
       transform="scale(0.16001333,0.16)" />
    <path
       id="path24"
       d="m 1301,1058 c 0,6.688 -5.312,12 -12,12 -6.625,0 -12,-5.312 -12,-12 0,-6.625 5.375,-12 12,-12 6.688,0 12,5.375 12,12"
       style="fill:#ffffff;fill-opacity:1;fill-rule:evenodd;stroke:#000000;stroke-width:6;stroke-linecap:butt;stroke-linejoin:miter;stroke-miterlimit:1;stroke-dasharray:none;stroke-opacity:1"
       transform="scale(0.16001333,0.16)" />
    <path
       id="path25"
       d="m 1205,1060 c 0,6.688 -5.312,12 -12,12 -6.625,0 -12,-5.312 -12,-12 0,-6.625 5.375,-12 12,-12 6.688,0 12,5.375 12,12"
       style="fill:#ffffff;fill-opacity:1;fill-rule:evenodd;stroke:#000000;stroke-width:6;stroke-linecap:butt;stroke-linejoin:miter;stroke-miterlimit:1;stroke-dasharray:none;stroke-opacity:1"
       transform="scale(0.16001333,0.16)" />
    <path
       id="path26"
       d="m 1253,1056 c 0,6.688 -5.312,12 -12,12 -6.625,0 -12,-5.312 -12,-12 0,-6.625 5.375,-12 12,-12 6.688,0 12,5.375 12,12"
       style="fill:#ffffff;fill-opacity:1;fill-rule:evenodd;stroke:#000000;stroke-width:6;stroke-linecap:butt;stroke-linejoin:miter;stroke-miterlimit:1;stroke-dasharray:none;stroke-opacity:1"
       transform="scale(0.16001333,0.16)" />
    <path
       id="path27"
       d="m 1023,588 v 42"
       style="fill:none;stroke:#000000;stroke-width:6;stroke-linecap:butt;stroke-linejoin:miter;stroke-miterlimit:1;stroke-dasharray:none;stroke-opacity:1"
       transform="scale(0.16001333,0.16)" />
    <path
       id="path28"
       d="m 1023,630 v 42"
       style="fill:none;stroke:#000000;stroke-width:6;stroke-linecap:butt;stroke-linejoin:miter;stroke-miterlimit:1;stroke-dasharray:none;stroke-opacity:1"
       transform="scale(0.16001333,0.16)" />
    <path
       id="path29"
       d="m 987,588 h 72"
       style="fill:none;stroke:#000000;stroke-width:6;stroke-linecap:butt;stroke-linejoin:miter;stroke-miterlimit:1;stroke-dasharray:none;stroke-opacity:1"
       transform="scale(0.16001333,0.16)" />
    <path
       id="path30"
       d="m 987,672 h 72"
       style="fill:none;stroke:#000000;stroke-width:6;stroke-linecap:butt;stroke-linejoin:miter;stroke-miterlimit:1;stroke-dasharray:none;stroke-opacity:1"
       transform="scale(0.16001333,0.16)" />
    <path
       id="path31"
       d="m 1035,671 c 0,6.688 -5.312,12 -12,12 -6.625,0 -12,-5.312 -12,-12 0,-6.625 5.375,-12 12,-12 6.688,0 12,5.375 12,12"
       style="fill:#ffffff;fill-opacity:1;fill-rule:evenodd;stroke:#000000;stroke-width:6;stroke-linecap:butt;stroke-linejoin:miter;stroke-miterlimit:1;stroke-dasharray:none;stroke-opacity:1"
       transform="scale(0.16001333,0.16)" />
    <path
       id="path32"
       d="m 1035,632 c 0,6.688 -5.312,12 -12,12 -6.625,0 -12,-5.312 -12,-12 0,-6.625 5.375,-12 12,-12 6.688,0 12,5.375 12,12"
       style="fill:#ffffff;fill-opacity:1;fill-rule:evenodd;stroke:#000000;stroke-width:6;stroke-linecap:butt;stroke-linejoin:miter;stroke-miterlimit:1;stroke-dasharray:none;stroke-opacity:1"
       transform="scale(0.16001333,0.16)" />
    <path
       id="path33"
       d="m 1035,587 c 0,6.688 -5.312,12 -12,12 -6.625,0 -12,-5.312 -12,-12 0,-6.625 5.375,-12 12,-12 6.688,0 12,5.375 12,12"
       style="fill:#ffffff;fill-opacity:1;fill-rule:evenodd;stroke:#000000;stroke-width:6;stroke-linecap:butt;stroke-linejoin:miter;stroke-miterlimit:1;stroke-dasharray:none;stroke-opacity:1"
       transform="scale(0.16001333,0.16)" />
    <path
       id="path34"
       d="m 805,1020 v 4"
       style="fill:none;stroke:#000000;stroke-width:6;stroke-linecap:butt;stroke-linejoin:miter;stroke-miterlimit:1;stroke-dasharray:none;stroke-opacity:1"
       transform="scale(0.16001333,0.16)" />
    <path
       id="path35"
       d="m 805,1024 v 3"
       style="fill:none;stroke:#000000;stroke-width:6;stroke-linecap:butt;stroke-linejoin:miter;stroke-miterlimit:1;stroke-dasharray:none;stroke-opacity:1"
       transform="scale(0.16001333,0.16)" />
    <path
       id="path36"
       d="m 769,1020 h 72"
       style="fill:none;stroke:#000000;stroke-width:6;stroke-linecap:butt;stroke-linejoin:miter;stroke-miterlimit:1;stroke-dasharray:none;stroke-opacity:1"
       transform="scale(0.16001333,0.16)" />
    <path
       id="path37"
       d="m 769,1027 h 72"
       style="fill:none;stroke:#000000;stroke-width:6;stroke-linecap:butt;stroke-linejoin:miter;stroke-miterlimit:1;stroke-dasharray:none;stroke-opacity:1"
       transform="scale(0.16001333,0.16)" />
    <path
       id="path38"
       d="m 817,1020 c 0,6.688 -5.312,12 -12,12 -6.625,0 -12,-5.312 -12,-12 0,-6.625 5.375,-12 12,-12 6.688,0 12,5.375 12,12"
       style="fill:#ffffff;fill-opacity:1;fill-rule:evenodd;stroke:#000000;stroke-width:6;stroke-linecap:butt;stroke-linejoin:miter;stroke-miterlimit:1;stroke-dasharray:none;stroke-opacity:1"
       transform="scale(0.16001333,0.16)" />
    <path
       id="path39"
       d="m 769,1027 c 0,6.688 -5.312,12 -12,12 -6.625,0 -12,-5.312 -12,-12 0,-6.625 5.375,-12 12,-12 6.688,0 12,5.375 12,12"
       style="fill:#ffffff;fill-opacity:1;fill-rule:evenodd;stroke:#000000;stroke-width:6;stroke-linecap:butt;stroke-linejoin:miter;stroke-miterlimit:1;stroke-dasharray:none;stroke-opacity:1"
       transform="scale(0.16001333,0.16)" />
    <path
       id="path40"
       d="m 865,1023 c 0,6.688 -5.312,12 -12,12 -6.625,0 -12,-5.312 -12,-12 0,-6.625 5.375,-12 12,-12 6.688,0 12,5.375 12,12"
       style="fill:#ffffff;fill-opacity:1;fill-rule:evenodd;stroke:#000000;stroke-width:6;stroke-linecap:butt;stroke-linejoin:miter;stroke-miterlimit:1;stroke-dasharray:none;stroke-opacity:1"
       transform="scale(0.16001333,0.16)" />
    <path
       id="path41"
       d="m 587,408 v 63"
       style="fill:none;stroke:#000000;stroke-width:6;stroke-linecap:butt;stroke-linejoin:miter;stroke-miterlimit:1;stroke-dasharray:none;stroke-opacity:1"
       transform="scale(0.16001333,0.16)" />
    <path
       id="path42"
       d="m 587,471 v 63"
       style="fill:none;stroke:#000000;stroke-width:6;stroke-linecap:butt;stroke-linejoin:miter;stroke-miterlimit:1;stroke-dasharray:none;stroke-opacity:1"
       transform="scale(0.16001333,0.16)" />
    <path
       id="path43"
       d="m 551,408 h 72"
       style="fill:none;stroke:#000000;stroke-width:6;stroke-linecap:butt;stroke-linejoin:miter;stroke-miterlimit:1;stroke-dasharray:none;stroke-opacity:1"
       transform="scale(0.16001333,0.16)" />
    <path
       id="path44"
       d="m 551,534 h 72"
       style="fill:none;stroke:#000000;stroke-width:6;stroke-linecap:butt;stroke-linejoin:miter;stroke-miterlimit:1;stroke-dasharray:none;stroke-opacity:1"
       transform="scale(0.16001333,0.16)" />
    <path
       id="path45"
       d="m 575,428 c 0,6.688 -5.312,12 -12,12 -6.625,0 -12,-5.312 -12,-12 0,-6.625 5.375,-12 12,-12 6.688,0 12,5.375 12,12"
       style="fill:#ffffff;fill-opacity:1;fill-rule:evenodd;stroke:#000000;stroke-width:6;stroke-linecap:butt;stroke-linejoin:miter;stroke-miterlimit:1;stroke-dasharray:none;stroke-opacity:1"
       transform="scale(0.16001333,0.16)" />
    <path
       id="path46"
       d="m 599,544 c 0,6.688 -5.312,12 -12,12 -6.625,0 -12,-5.312 -12,-12 0,-6.625 5.375,-12 12,-12 6.688,0 12,5.375 12,12"
       style="fill:#ffffff;fill-opacity:1;fill-rule:evenodd;stroke:#000000;stroke-width:6;stroke-linecap:butt;stroke-linejoin:miter;stroke-miterlimit:1;stroke-dasharray:none;stroke-opacity:1"
       transform="scale(0.16001333,0.16)" />
    <path
       id="path47"
       d="m 623,442 c 0,6.688 -5.312,12 -12,12 -6.625,0 -12,-5.312 -12,-12 0,-6.625 5.375,-12 12,-12 6.688,0 12,5.375 12,12"
       style="fill:#ffffff;fill-opacity:1;fill-rule:evenodd;stroke:#000000;stroke-width:6;stroke-linecap:butt;stroke-linejoin:miter;stroke-miterlimit:1;stroke-dasharray:none;stroke-opacity:1"
       transform="scale(0.16001333,0.16)" />
    <path
       style="font-size:66px;font-family:Arial"
       d="M 5.0273437,0 V -47.244141 H 11.44043 l 24.814453,37.092774 v -37.092774 h 5.99414 V 0 H 35.835937 L 11.021484,-37.125 V 0 Z M 48.204491,-17.112305 q 0,-9.506836 5.285156,-14.083007 4.415039,-3.802735 10.763672,-3.802735 7.057617,0 11.537109,4.640625 4.479492,4.608399 4.479492,12.761719 0,6.606445 -1.998047,10.4091796 -1.96582,3.7705078 -5.768554,5.8652343 -3.770508,2.0947266 -8.25,2.0947266 -7.186524,0 -11.633789,-4.6083984 -4.415039,-4.6083985 -4.415039,-13.2773441 z m 5.961914,0 q 0,6.574219 2.868164,9.8613284 2.868164,3.2548828 7.21875,3.2548828 4.318359,0 7.186523,-3.2871093 2.868164,-3.2871099 2.868164,-10.0224609 0,-6.348633 -2.90039,-9.603516 -2.868164,-3.287109 -7.154297,-3.287109 -4.350586,0 -7.21875,3.254883 -2.868164,3.254883 -2.868164,9.829101 z M 86.279274,0 v -34.224609 h 5.220703 v 5.188476 q 1.998047,-3.641601 3.673828,-4.801758 1.708008,-1.160156 3.738281,-1.160156 2.932614,0 5.961914,1.869141 l -1.99805,5.381836 q -2.12695,-1.256836 -4.253903,-1.256836 -1.901367,0 -3.416015,1.160156 -1.514649,1.12793 -2.15918,3.158203 -0.966797,3.09375 -0.966797,6.767578 V 0 Z m 21.052966,0 v -34.224609 h 5.18848 v 4.801757 q 1.61133,-2.513671 4.28613,-4.02832 2.67481,-1.546875 6.09082,-1.546875 3.80274,0 6.21973,1.579102 2.44922,1.579101 3.44824,4.415039 4.06055,-5.994141 10.57032,-5.994141 5.09179,0 7.83105,2.835938 2.73926,2.803711 2.73926,8.668945 V 0 h -5.76856 v -21.55957 q 0,-3.480469 -0.58007,-4.995117 -0.54786,-1.546875 -2.03028,-2.481446 -1.48242,-0.93457 -3.48047,-0.93457 -3.60937,0 -5.99414,2.416992 -2.38476,2.384766 -2.38476,7.669922 V 0 h -5.80078 v -22.236328 q 0,-3.867188 -1.41797,-5.800781 -1.41797,-1.933594 -4.64063,-1.933594 -2.44922,0 -4.54394,1.289062 -2.0625,1.289063 -2.99707,3.770508 -0.93457,2.481446 -0.93457,7.154297 V 0 Z m 75.33153,-4.2216797 q -3.22265,2.7392578 -6.21972,3.86718751 -2.96485,1.12792969 -6.38086,1.12792969 -5.63965,0 -8.66895,-2.7392578 -3.0293,-2.7714844 -3.0293,-7.0576172 0,-2.5136715 1.12793,-4.5761715 1.16016,-2.094727 2.99707,-3.351563 1.86915,-1.256836 4.18946,-1.901367 1.70801,-0.451172 5.15625,-0.870117 7.02539,-0.837891 10.34472,-1.998047 0.0322,-1.192383 0.0322,-1.514649 0,-3.544921 -1.64355,-4.995117 -2.22364,-1.96582 -6.60645,-1.96582 -4.09277,0 -6.05859,1.450195 -1.9336,1.417969 -2.86817,5.059571 l -5.67187,-0.773438 q 0.77344,-3.641601 2.5459,-5.865234 1.77246,-2.25586 5.12402,-3.448242 3.35156,-1.22461 7.7666,-1.22461 4.38281,0 7.12207,1.03125 2.73926,1.03125 4.02832,2.610352 1.28906,1.546875 1.80469,3.93164 0.29004,1.482422 0.29004,5.34961 v 7.734375 q 0,8.0888669 0.35449,10.2480466 Q 188.78682,-1.9658203 189.88252,0 h -6.05859 q -0.90234,-1.8046875 -1.16016,-4.2216797 z m -0.4834,-12.9550783 q -3.1582,1.289063 -9.47461,2.191406 -3.57714,0.515625 -5.05957,1.160157 -1.48242,0.644531 -2.28808,1.901367 -0.80567,1.224609 -0.80567,2.7392577 0,2.3203125 1.74024,3.8671875 1.77246,1.546875 5.15625,1.546875 3.35156,0 5.96191,-1.4501953 2.61035,-1.4824219 3.83496,-4.0283203 0.93457,-1.9658206 0.93457,-5.8007816 z M 195.19191,0 v -47.244141 h 5.80078 V 0 Z m 15.15422,-40.573242 v -6.670899 h 5.80078 v 6.670899 z m 0,40.573242 v -34.224609 h 5.80078 V 0 Z m 10.90933,0 v -4.7050781 l 21.78516,-25.0078129 q -3.70606,0.19336 -6.54199,0.19336 h -13.9541 v -4.705078 h 27.97265 v 3.834961 l -18.53027,21.7207027 -3.57715,3.9638672 q 3.89941,-0.2900391 7.31543,-0.2900391 h 15.82324 V 0 Z m 58.50023,-11.021484 5.99414,0.741211 q -1.41797,5.2529293 -5.25293,8.1533199 -3.83496,2.9003906 -9.79687,2.9003906 -7.50879,0 -11.92383,-4.6083984 -4.38281,-4.640625 -4.38281,-12.9873051 0,-8.636718 4.44726,-13.40625 4.44727,-4.769531 11.53711,-4.769531 6.86426,0 11.21485,4.672852 4.35058,4.672851 4.35058,13.148437 0,0.515625 -0.0322,1.546875 h -25.52343 q 0.32226,5.6396486 3.19043,8.6367189 2.86816,2.9970703 7.15429,2.9970703 3.19043,0 5.44629,-1.6757812 2.25586,-1.6757812 3.57715,-5.349609 z m -19.0459,-9.37793 h 19.11035 q -0.38671,-4.318359 -2.1914,-6.477539 -2.77149,-3.351563 -7.18653,-3.351563 -3.99609,0 -6.73535,2.674805 -2.70703,2.674805 -2.99707,7.154297 z M 313.52115,0 v -4.3183594 q -3.25488,5.0917969 -9.57129,5.0917969 -4.09277,0 -7.54102,-2.2558594 -3.41601,-2.2558594 -5.31738,-6.2841797 -1.86914,-4.0605464 -1.86914,-9.3134764 0,-5.124024 1.70801,-9.28125 1.70801,-4.189453 5.12402,-6.413086 3.41602,-2.223633 7.6377,-2.223633 3.09375,0 5.51074,1.321289 2.41699,1.289063 3.93164,3.383789 v -16.951172 h 5.76855 V 0 Z m -18.33692,-17.080078 q 0,6.574219 2.77149,9.8291014 2.77148,3.2548828 6.54199,3.2548828 3.80274,0 6.44531,-3.0937499 2.67481,-3.1259763 2.67481,-9.5068363 0,-7.02539 -2.70703,-10.3125 -2.70703,-3.287109 -6.6709,-3.287109 -3.86719,0 -6.47754,3.158203 -2.57813,3.158203 -2.57813,9.958008 z M 344.26065,0 v -34.224609 h 5.2207 v 5.188476 q 1.99805,-3.641601 3.67383,-4.801758 1.70801,-1.160156 3.73828,-1.160156 2.93262,0 5.96192,1.869141 l -1.99805,5.381836 q -2.12695,-1.256836 -4.25391,-1.256836 -1.90136,0 -3.41601,1.160156 -1.51465,1.12793 -2.15918,3.158203 -0.9668,3.09375 -0.9668,6.767578 V 0 Z m 44.48166,-11.021484 5.99414,0.741211 q -1.41797,5.2529293 -5.25293,8.1533199 -3.83496,2.9003906 -9.79687,2.9003906 -7.50879,0 -11.92383,-4.6083984 -4.38282,-4.640625 -4.38282,-12.9873051 0,-8.636718 4.44727,-13.40625 4.44727,-4.769531 11.53711,-4.769531 6.86426,0 11.21484,4.672852 4.35059,4.672851 4.35059,13.148437 0,0.515625 -0.0322,1.546875 h -25.52343 q 0.32226,5.6396486 3.19043,8.6367189 2.86816,2.9970703 7.15429,2.9970703 3.19043,0 5.44629,-1.6757812 2.25586,-1.6757812 3.57715,-5.349609 z m -19.0459,-9.37793 h 19.11035 q -0.38672,-4.318359 -2.1914,-6.477539 -2.77149,-3.351563 -7.18653,-3.351563 -3.99609,0 -6.73535,2.674805 -2.70703,2.674805 -2.99707,7.154297 z M 401.16476,0 v -47.244141 h 5.80079 V 0 Z m 36.465,-4.2216797 q -3.22266,2.7392578 -6.21973,3.86718751 -2.96484,1.12792969 -6.38086,1.12792969 -5.63964,0 -8.66894,-2.7392578 -3.0293,-2.7714844 -3.0293,-7.0576172 0,-2.5136715 1.12793,-4.5761715 1.16016,-2.094727 2.99707,-3.351563 1.86914,-1.256836 4.18946,-1.901367 1.708,-0.451172 5.15625,-0.870117 7.02539,-0.837891 10.34472,-1.998047 0.0322,-1.192383 0.0322,-1.514649 0,-3.544921 -1.64356,-4.995117 -2.22363,-1.96582 -6.60644,-1.96582 -4.09277,0 -6.05859,1.450195 -1.9336,1.417969 -2.86817,5.059571 l -5.67187,-0.773438 q 0.77343,-3.641601 2.54589,-5.865234 1.77247,-2.25586 5.12403,-3.448242 3.35156,-1.22461 7.7666,-1.22461 4.38281,0 7.12207,1.03125 2.73926,1.03125 4.02832,2.610352 1.28906,1.546875 1.80469,3.93164 0.29004,1.482422 0.29004,5.34961 v 7.734375 q 0,8.0888669 0.35449,10.2480466 Q 443.75281,-1.9658203 444.84851,0 h -6.05859 q -0.90235,-1.8046875 -1.16016,-4.2216797 z m -0.4834,-12.9550783 q -3.1582,1.289063 -9.47461,2.191406 -3.57715,0.515625 -5.05957,1.160157 -1.48242,0.644531 -2.28808,1.901367 -0.80567,1.224609 -0.80567,2.7392577 0,2.3203125 1.74024,3.8671875 1.77246,1.546875 5.15625,1.546875 3.35156,0 5.96191,-1.4501953 2.61035,-1.4824219 3.83496,-4.0283203 0.93457,-1.9658206 0.93457,-5.8007816 z m 25.80548,11.9882814 0.83789,5.12402348 q -2.44921,0.515625 -4.38281,0.515625 -3.1582,0 -4.89844,-0.99902344 -1.74023,-0.99902344 -2.44921,-2.61035154 -0.70899,-1.6435547 -0.70899,-6.8642579 v -19.69043 h -4.25391 v -4.511718 h 4.25391 v -8.475586 l 5.76856,-3.480469 v 11.956055 h 5.833 v 4.511718 h -5.833 v 20.0126957 q 0,2.4814453 0.29003,3.1904297 0.32227,0.7089844 0.99903,1.1279297 0.70898,0.4189453 1.99804,0.4189453 0.9668,0 2.5459,-0.225586 z m 5.4401,-35.3847654 v -6.670899 h 5.80078 v 6.670899 z m 0,40.573242 v -34.224609 h 5.80078 V 0 Z m 24.46771,0 -13.01953,-34.224609 h 6.12305 l 7.34765,20.496093 q 1.19238,3.319336 2.19141,6.8964848 0.77344,-2.7070313 2.15918,-6.5097658 l 7.60547,-20.882812 h 5.96191 L 498.27371,0 Z m 44.94186,-11.021484 5.99414,0.741211 q -1.41796,5.2529293 -5.25293,8.1533199 -3.83496,2.9003906 -9.79687,2.9003906 -7.50879,0 -11.92383,-4.6083984 -4.38281,-4.640625 -4.38281,-12.9873051 0,-8.636718 4.44726,-13.40625 4.44727,-4.769531 11.53711,-4.769531 6.86426,0 11.21485,4.672852 4.35058,4.672851 4.35058,13.148437 0,0.515625 -0.0322,1.546875 h -25.52344 q 0.32227,5.6396486 3.19043,8.6367189 2.86816,2.9970703 7.1543,2.9970703 3.19043,0 5.44629,-1.6757812 2.25585,-1.6757812 3.57714,-5.349609 z m -19.04589,-9.37793 h 19.11035 q -0.38672,-4.318359 -2.19141,-6.477539 -2.77148,-3.351563 -7.18652,-3.351563 -3.9961,0 -6.73535,2.674805 -2.70704,2.674805 -2.99707,7.154297 z M 569.11206,0 v -47.244141 h 16.27441 q 5.51075,0 8.41114,0.676758 4.06054,0.934571 6.92871,3.383789 3.73828,3.158203 5.57519,8.088867 1.86914,4.898438 1.86914,11.214844 0,5.381836 -1.25683,9.539063 -1.25684,4.157226 -3.22266,6.8964841 -1.96582,2.7070312 -4.31836,4.2861328 -2.32031,1.546875 -5.63965,2.35253904 Q 590.44604,0 586.15991,0 Z m 6.25195,-5.5751953 h 10.08692 q 4.67285,0 7.31543,-0.8701172 2.6748,-0.8701172 4.2539,-2.4492188 2.22364,-2.2236327 3.44825,-5.9619137 1.25683,-3.770508 1.25683,-9.120117 0,-7.41211 -2.44922,-11.375977 -2.41699,-3.996094 -5.89746,-5.349609 -2.51367,-0.966797 -8.08887,-0.966797 h -9.92578 z M 608.94666,0 627.09021,-47.244141 h 6.73535 L 653.1615,0 h -7.12207 l -5.51074,-14.308594 H 620.7738 L 615.58533,0 Z m 13.63183,-19.400391 h 16.0166 l -4.93066,-13.083984 q -2.25586,-5.961914 -3.35156,-9.796875 -0.90235,4.543945 -2.5459,9.023438 z M 656.30554,0 v -47.244141 h 34.16016 v 5.575196 h -27.9082 v 14.469726 h 26.13574 v 5.542969 H 662.5575 v 16.0810547 h 29.0039 V 0 Z m 41.9126,0 v -47.244141 h 17.82129 q 4.70508,0 7.18652,0.451172 3.48047,0.580078 5.83301,2.223633 2.35254,1.611328 3.77051,4.543945 1.45019,2.932618 1.45019,6.445313 0,6.026367 -3.83496,10.21582 -3.83496,4.157227 -13.85742,4.157227 H 704.47009 V 0 Z m 6.25195,-24.782227 h 12.21387 q 6.05859,0 8.60449,-2.255859 2.5459,-2.255859 2.5459,-6.348633 0,-2.964843 -1.51465,-5.05957 -1.48242,-2.126953 -3.93164,-2.803711 -1.5791,-0.418945 -5.83301,-0.418945 h -12.08496 z m 76.38935,20.5605473 q -3.22266,2.7392578 -6.21973,3.86718751 -2.96484,1.12792969 -6.38086,1.12792969 -5.63965,0 -8.66895,-2.7392578 -3.02929,-2.7714844 -3.02929,-7.0576172 0,-2.5136715 1.12793,-4.5761715 1.16015,-2.094727 2.99707,-3.351563 1.86914,-1.256836 4.18945,-1.901367 1.70801,-0.451172 5.15625,-0.870117 7.02539,-0.837891 10.34473,-1.998047 0.0322,-1.192383 0.0322,-1.514649 0,-3.544921 -1.64355,-4.995117 -2.22363,-1.96582 -6.60645,-1.96582 -4.09277,0 -6.05859,1.450195 -1.93359,1.417969 -2.86816,5.059571 l -5.67188,-0.773438 q 0.77344,-3.641601 2.5459,-5.865234 1.77246,-2.25586 5.12402,-3.448242 3.35157,-1.22461 7.7666,-1.22461 4.38282,0 7.12208,1.03125 2.73925,1.03125 4.02832,2.610352 1.28906,1.546875 1.80468,3.93164 0.29004,1.482422 0.29004,5.34961 v 7.734375 q 0,8.0888669 0.35449,10.2480466 Q 786.98248,-1.9658203 788.07819,0 h -6.0586 q -0.90234,-1.8046875 -1.16015,-4.2216797 z m -0.4834,-12.9550783 q -3.15821,1.289063 -9.47461,2.191406 -3.57715,0.515625 -5.05957,1.160157 -1.48242,0.644531 -2.28809,1.901367 -0.80566,1.224609 -0.80566,2.7392577 0,2.3203125 1.74023,3.8671875 1.77246,1.546875 5.15625,1.546875 3.35156,0 5.96192,-1.4501953 2.61035,-1.4824219 3.83496,-4.0283203 0.93457,-1.9658206 0.93457,-5.8007816 z m 35.47345,4.640625 5.7041,0.741211 q -0.93457,5.8974611 -4.80176,9.2490236 -3.83496,3.3193359 -9.44238,3.3193359 -7.02539,0 -11.31153,-4.5761719 -4.2539,-4.6083984 -4.2539,-13.1806636 0,-5.542969 1.83691,-9.700196 1.83692,-4.157226 5.5752,-6.219726 3.77051,-2.094727 8.18554,-2.094727 5.5752,0 9.12012,2.835938 3.54492,2.803711 4.54395,7.992187 l -5.63965,0.870117 q -0.80567,-3.448242 -2.86817,-5.188476 -2.03027,-1.740235 -4.93066,-1.740235 -4.38281,0 -7.12207,3.158204 -2.73926,3.125976 -2.73926,9.925781 0,6.896484 2.64258,10.0224607 2.64258,3.1259765 6.89649,3.1259765 3.41601,0 5.7041,-2.0947265 2.28808,-2.0947266 2.90039,-6.4453127 z m 21.35199,7.3476564 0.83789,5.12402348 q -2.44922,0.515625 -4.38281,0.515625 -3.15821,0 -4.89844,-0.99902344 -1.74024,-0.99902344 -2.44922,-2.61035154 -0.70899,-1.6435547 -0.70899,-6.8642579 v -19.69043 h -4.2539 v -4.511718 h 4.2539 v -8.475586 l 5.76856,-3.480469 v 11.956055 h 5.83301 v 4.511718 h -5.83301 v 20.0126957 q 0,2.4814453 0.29004,3.1904297 0.32226,0.7089844 0.99902,1.1279297 0.70899,0.4189453 1.99805,0.4189453 0.9668,0 2.5459,-0.225586 z m 6.43011,-35.3847654 v -6.670899 h 5.80078 v 6.670899 z m 0,40.573242 v -34.224609 h 5.80078 V 0 Z m 23.47772,0 -13.01953,-34.224609 h 6.12305 l 7.34766,20.496093 q 1.19238,3.319336 2.1914,6.8964848 0.77344,-2.7070313 2.15918,-6.5097658 l 7.60547,-20.882812 h 5.96191 L 872.52338,0 Z m 21.54535,-40.573242 v -6.670899 h 5.80078 v 6.670899 z m 0,40.573242 v -34.224609 h 5.80078 V 0 Z m 27.62592,-5.1884766 0.83789,5.12402348 q -2.44922,0.515625 -4.38281,0.515625 -3.15821,0 -4.89844,-0.99902344 -1.74024,-0.99902344 -2.44922,-2.61035154 -0.70898,-1.6435547 -0.70898,-6.8642579 v -19.69043 h -4.25391 v -4.511718 h 4.25391 v -8.475586 l 5.76855,-3.480469 v 11.956055 h 5.83301 v 4.511718 h -5.83301 v 20.0126957 q 0,2.4814453 0.29004,3.1904297 0.32227,0.7089844 0.99902,1.1279297 0.70899,0.4189453 1.99805,0.4189453 0.9668,0 2.5459,-0.225586 z m 5.15008,18.3691406 -0.64453,-5.446289 Q 922.6875,8.25 924.10547,8.25 q 1.93359,0 3.09375,-0.6445313 1.16015,-0.6445312 1.90137,-1.8046875 0.54785,-0.8701171 1.77246,-4.3183593 0.16113,-0.48339846 0.51562,-1.41796878 L 918.40137,-34.224609 h 6.25195 l 7.12207,19.819336 q 1.38574,3.770507 2.48145,7.9277339 0.99902,-3.9960939 2.38476,-7.7988279 l 7.31543,-19.948242 h 5.80078 L 936.73828,0.58007812 q -2.09473,5.63964848 -3.25488,7.76660158 -1.54688,2.8681643 -3.54492,4.1894533 -1.99805,1.353515 -4.76953,1.353515 -1.67579,0 -3.73829,-0.708984 z m 49.35871,-0.06445 v -60.360352 h 12.79394 v 4.801758 h -6.99316 V 8.3144531 h 6.99316 v 4.8017579 z m 41.26703,-17.3378907 q -3.2227,2.7392578 -6.2197,3.86718751 -2.9649,1.12792969 -6.38089,1.12792969 -5.63965,0 -8.66894,-2.7392578 -3.0293,-2.7714844 -3.0293,-7.0576172 0,-2.5136715 1.12793,-4.5761715 1.16015,-2.094727 2.99707,-3.351563 1.86914,-1.256836 4.18945,-1.901367 1.70801,-0.451172 5.15628,-0.870117 7.0254,-0.837891 10.3447,-1.998047 0.032,-1.192383 0.032,-1.514649 0,-3.544921 -1.6435,-4.995117 -2.2237,-1.96582 -6.6065,-1.96582 -4.09275,0 -6.05857,1.450195 -1.93359,1.417969 -2.86816,5.059571 l -5.67188,-0.773438 q 0.77344,-3.641601 2.5459,-5.865234 1.77246,-2.25586 5.12402,-3.448242 3.35157,-1.22461 7.76659,-1.22461 4.3828,0 7.1221,1.03125 2.7392,1.03125 4.0283,2.610352 1.2891,1.546875 1.8047,3.93164 0.29,1.482422 0.29,5.34961 v 7.734375 q 0,8.0888669 0.3545,10.2480466 0.3867,2.1269531 1.4824,4.0927734 h -6.0585 q -0.9024,-1.8046875 -1.1602,-4.2216797 z m -0.4834,-12.9550783 q -3.1582,1.289063 -9.4746,2.191406 -3.57716,0.515625 -5.05958,1.160157 -1.48242,0.644531 -2.28809,1.901367 -0.80566,1.224609 -0.80566,2.7392577 0,2.3203125 1.74023,3.8671875 1.77246,1.546875 5.1563,1.546875 3.3515,0 5.9619,-1.4501953 2.6103,-1.4824219 3.8349,-4.0283203 0.9346,-1.9658206 0.9346,-5.8007816 z M 1026.357,0 v -6.6064453 h 6.6064 V 0 Z m 38.8591,0 v -5.0273437 q -3.9961,5.8007812 -10.8604,5.8007812 -3.0293,0 -5.6719,-1.16015625 -2.6103,-1.16015625 -3.8994,-2.90039065 -1.2568,-1.7724609 -1.7724,-4.3183593 -0.3545,-1.7080079 -0.3545,-5.4140623 v -21.205078 h 5.8008 v 18.981445 q 0,4.543945 0.3544,6.1230468 0.5479,2.288086 2.3204,3.609375 1.7724,1.2890625 4.3828,1.2890625 2.6103,0 4.8984,-1.321289 2.2881,-1.3535157 3.2227,-3.6416016 0.9668,-2.3203127 0.9668,-6.7031247 v -18.336914 h 5.8007 V 0 Z m 14.2038,0 v -6.6064453 h 6.6065 V 0 Z m 26.1297,13.116211 h -12.794 V 8.3144531 h 6.9932 V -42.442383 h -6.9932 v -4.801758 h 12.794 z"
       id="text47"
       transform="matrix(0,-0.16,0.16001333,0,24.002,191.04)"
       aria-label="NormalizedrelativeDAEPactivity[a.u.]" />
    <path
       style="font-size:66px;font-family:Arial"
       d="M 15.436523,13.889648 Q 10.634766,7.8310547 7.3154297,-0.29003906 3.9960938,-8.4111328 3.9960938,-17.112305 q 0,-7.669922 2.4814453,-14.695312 2.9003906,-8.15332 8.9589839,-16.242188 h 4.157227 q -3.899414,6.703125 -5.15625,9.571289 -1.96582,4.447266 -3.09375,9.28125 -1.3857422,6.026368 -1.3857422,12.117188 0,15.5009764 9.6357422,30.969726 z M 35.320312,0 22.78418,-47.244141 h 6.413086 l 7.186523,30.969727 q 1.160156,4.866211 1.998047,9.6679687 1.804687,-7.5732427 2.126953,-8.7333987 L 49.5,-47.244141 h 7.541016 l 6.767578,23.91211 q 2.545898,8.894531 3.673828,16.7255857 0.902344,-4.4794927 2.352539,-10.2802737 l 7.412109,-30.357422 h 6.28418 L 70.576172,0 h -6.026367 l -9.958008,-35.99707 q -1.256836,-4.511719 -1.482422,-5.542969 -0.741211,3.254883 -1.385742,5.542969 L 41.701172,0 Z m 63.82045,0 V -41.668945 H 83.575333 v -5.575196 H 121.0226 v 5.575196 H 105.39272 V 0 Z m 74.836278,-27.779297 h -31.19532 v -5.414062 h 31.19532 z m 0,14.34082 h -31.19532 v -5.414062 h 31.19532 z M 219.72972,0 h -5.80078 v -36.963867 q -2.09473,1.998047 -5.51074,3.996094 -3.38379,1.998046 -6.09082,2.99707 v -5.607422 q 4.86621,-2.288086 8.50781,-5.542969 3.6416,-3.254883 5.15625,-6.316406 h 3.73828 z m 18.55452,13.889648 h -4.15723 q 9.63575,-15.4687496 9.63575,-30.969726 0,-6.058594 -1.38575,-12.020508 -1.0957,-4.833984 -3.06152,-9.28125 -1.25684,-2.900391 -5.18848,-9.667969 h 4.15723 q 6.05859,8.088868 8.95899,16.242188 2.48144,7.02539 2.48144,14.695312 0,8.7011722 -3.35156,16.82226594 -3.31934,8.12109376 -8.08887,14.17968706 z"
       id="text48"
       transform="matrix(0,-0.16,0.16001333,0,37.44312,122.4)"
       aria-label="(WT=1)" />
  </g>
</svg>
